<?xml version="1.0" encoding="utf-8"?>
<!-- Generator: Adobe Illustrator 23.0.1, SVG Export Plug-In . SVG Version: 6.00 Build 0)  -->
<svg version="1.1" id="Layer_1" xmlns="http://www.w3.org/2000/svg" xmlns:xlink="http://www.w3.org/1999/xlink" x="0px" y="0px"
	 viewBox="0 0 1920 1080" style="enable-background:new 0 0 1920 1080;" xml:space="preserve">
<style type="text/css">
	.st0{fill:#CC1C1C;}
	.st1{fill:#FFFFFF;}
	.st2{fill:#5A5A5A;}
</style>
<g>
	<path class="st0" d="M722.82,755.73c-8.21,7.26-15.35,15.74-22.86,23.78c-1.85,1.98-0.94,5.61,0.22,5.61c1.16,0,3.29-2.32,4.8-3.86
		c11.34-11.48,21.82-24,34.2-34.23c22.73-18.8,46.46-36.41,70.04-54.17c5.99-4.51,6.56-10.53,8.24-18.15
		c-2.82,1.8-4.58,2.65-5.99,3.88C781.85,704.25,752.15,729.78,722.82,755.73z"/>
	<path class="st0" d="M1013.82,747.22c-3.99-21.52-10.8-42.51-16.49-63.71c-5.42-20.22-11.01-40.39-16.53-60.58
		c-0.1-0.38-0.24-0.75-0.32-1.13c-2.33-10.36-2.74-11.17-12.57-6.21c-14.37,7.25-28.14,15.7-41.98,23.95
		c-1.62,0.96-2.72,3.83-2.94,5.93c-0.86,8.39-0.79,16.9-1.95,25.24c-2.28,16.37-3.52,33.13-8.18,48.85
		c-6.17,20.8-7.81,41.93-9.62,63.2c-1.56,18.24-3.39,36.46-4.54,54.72c-0.78,12.38-0.72,24.81-1.24,37.2
		c52.5-0.16,108.76-0.34,159.12-0.49c-5.76-14.64-11.53-29.27-17.03-44C1029.41,803.03,1019.16,776,1013.82,747.22z"/>
	<path class="st0" d="M1082.07,790.59c-4.73-13.03-10.81-25.58-15.26-38.69c-4.19-12.35-6.78-25.23-10.54-37.74
		c-4.04-13.41-8.9-26.57-12.9-39.99c-5.86-19.63-11.4-39.35-16.83-59.11c-2.41-8.76-4.18-17.7-6.35-26.99
		c-7.75-0.21-13.23,5.1-19.44,8.53c-0.81,0.45-1.09,2.45-1.07,3.72c0.32,15.18,3.33,29.81,7.37,44.48
		c8.04,29.14,13.89,58.91,22.45,87.89c8.95,30.31,20.12,59.96,30.1,89.97c4.27,12.85,8.79,25.7,11.75,38.88
		c0.94,4.16,1.66,8.38,2.32,12.6c13.97-0.04,27.36-0.09,39.95-0.13c-4.34-9.19-9.22-20.55-12.4-28.51
		C1094.05,827.5,1088.69,808.81,1082.07,790.59z"/>
	<path class="st0" d="M989.49,310.15c0.92-2.17-7.87-43.75-7.87-43.75l-1.03,2.66c0,0,2.18,51.24,3.74,51.94
		C985.89,321.71,988.43,312.67,989.49,310.15z"/>
	<path class="st0" d="M995.33,387.69c4.43,25.53,8.87,51.06,13.31,76.66c7.43-1.03,7.86-4.94,6.57-10.01
		c-5.25-20.72-18.79-95.26-24.02-115.98c-0.44-1.73-1.72,1.06-1.64,4.76C988.75,343.31,994.62,383.65,995.33,387.69z"/>
	<path class="st0" d="M852.51,625.69c15.43-10.83,18.92-19.7,14.11-33.93C852.66,598.86,852.42,611.76,852.51,625.69z"/>
	<path class="st0" d="M813.17,640.18c-9.47,8.59-19.76,16.32-28.83,25.3c-29.1,28.8-57.9,57.92-86.56,87.16
		c-5.28,5.38-14,17.18-14,17.95c0,0.76,0.93,1.44,1.69,1.44c1.04-0.66,2.26-1.16,3.1-2.03c3.69-3.81,7.18-7.82,10.91-11.6
		c38.05-38.55,77.21-75.94,119.27-110.13c7.36-5.98,10.83-12.4,8.83-23.1C822.34,630.67,818.05,635.75,813.17,640.18z"/>
	<path class="st0" d="M1102.88,756.37c-6.22-15.42-10.32-31.67-15.65-47.46c-6.9-20.45-14.38-40.71-21.03-61.23
		c-6.9-21.3-13.11-42.82-19.64-64.25c-1.85-6.06-3.46-6.59-9.74-2.84c2,5.34,4.47,10.66,6.02,16.24
		c6.08,21.93,11.56,44.03,17.83,65.9c9.86,34.36,19.67,68.76,30.55,102.81c5.47,17.12,13.54,33.39,19.94,50.23
		c5.22,13.74,9.7,27.76,14.52,41.65c1.09,3.15,2.04,6.36,3.41,9.39c0.96,2.13,1.26,4.62,1.13,7.14c8.74-0.03,16.97-0.05,24.62-0.08
		c-6.89-14.96-12.76-27.79-19.71-43.45C1124.21,805.81,1112.94,781.33,1102.88,756.37z"/>
	<path class="st0" d="M664.61,770.81c13.12-17.25,26.45-34.36,40.12-51.17c4.79-5.89,10.25-11.68,16.51-15.83
		c8.81-5.83,13.11-14.93,19.45-22.55c4.57-5.49,9.29-11.25,15.07-15.25c8.49-5.87,15.99-12.25,22.65-20.29
		c8.39-10.13,18.45-18.87,27.76-28.24c8.2-8.25,16.33-16.58,24.58-24.78c4.31-4.28,20.05-33.47,21.47-40.49
		c3.32-16.53,7.64-32.96,6.53-50.17c-0.27-4.24,1.56-8.88,3.33-12.93c5.65-12.93,11.47-25.81,17.74-38.45
		c3.33-6.71,3.97-11.07,4.9-18.56c0.38-3.04,1.23-5.94,3.49-11.83c3.83-10.01,6.9-16,8.82-26.01c2.14-11.12,3.74-22.35,5.9-33.46
		c0.58-2.99,2.43-5.72,3.6-8.61c6.5-16.11,13.33-32.11,19.35-48.4c6.04-16.34,10.5-33.29,17.03-49.42
		c8.51-20.98,18.41-41.4,27.65-62.09c4.78-10.7,9.05-21.64,14.33-32.08c1.56-3.09,7.01-6.76,8.82-7.17
		c1.81-0.41,1.78,0.41,2.46,2.05c0.68,1.65,0.18,6.08-0.3,9.49c-3.93,27.54-17.73,51.38-28.71,76.29
		c-1.45,3.28-9.58,22.45-10.59,25.12c-5.75,15.21-11.55,30.41-17.11,45.69c-6.6,18.12-13.45,36.17-19.32,54.53
		c-8.04,25.13-14.23,50.89-23.19,75.66c-6.04,16.7-12.18,33.22-15.94,50.59c-5.27,24.35-10.72,48.66-16.05,73
		c-0.1,0.44,0.29,0.98,0.46,1.49c5.85-2.12,15.51-11.14,16.63-15.81c3.62-15.08,7-30.21,10.66-45.28
		c4.67-19.2,9.2-38.45,14.36-57.52c5.8-21.4,12.57-42.54,18.26-63.97c3.41-12.87,4.42-26.45,8.51-39.06
		c8.6-26.51,18.47-48.45,27.73-74.76c0.71-2.01,8.36-20.16,8.68-20.03c19.51-32.65,53.58-96.65,56.64-97.44
		c3.07-0.79,1.39,5.19,0.84,6.77c-2.77,7.95-5.42,16.02-9.07,23.59c-7.15,14.84-15.87,28.99-22.02,44.2
		c-2.72,6.72-1.12,15.34-0.82,23.07c0.21,5.56,0.4,35.6,1.33,41.88c5.47-12.18,9.32-19.53,14.15-29.06
		c4.33,7.32,0.02,13.13-1.55,19.2c-3.54,13.67-4.88,11.35-7.13,25.26c-0.58,3.61-2.11,6.37-1.27,13.76
		c1.15,10.12,4.23,19.34,5.43,29.44c0.54,4.53,1.23,9.7,3.75,13.22c9.43,13.19,11.46,28.65,14.46,43.75
		c3.04,15.32,5.01,30.85,7.53,46.73c1.98-0.46,3.3-0.4,4.09-1.01c18.27-13.99,39.09-23.27,59.72-33.01
		c4.93-2.33,9.65-5.1,14.34-7.93c-4.92-7.58-8.08-12.44-8.9-13.7c-8.08-12.44-16.15-24.87-24.21-37.32
		c-2.91-4.5-5.48-10.15-5.62-15.34c-1.84-68.29-3.24-136.58-4.71-204.88c-0.62-28.93,8.41-54.35,28.65-75.28
		c8.76-9.08,9.83-17.55,0.16-26.41c-45.35,0.1-226.76,1.63-272.11,1.53c-9.66,8.86-8.6,17.32,0.16,26.41
		c20.24,20.93,29.27,46.35,28.65,75.28c-1.46,68.31-2.87,136.59-4.71,204.88c-0.14,5.19-2.72,10.84-5.62,15.34
		c-8.06,12.45-16.13,24.89-24.21,37.32c-6.35,9.77-150.9,232.42-186.92,289.08c-37.19,53.66-29.03,108.63-29.03,108.63
		c3.04,15.22,9.27,28.26,17.85,39.06c5.62-9.78,11.41-19.47,17.41-29.01C645.75,795.45,655.24,783.13,664.61,770.81z"/>
	<path class="st0" d="M1042.56,471.21c-3.87,2.05-5.39,4.29-4.43,8.82c1.34,6.31,1.89,12.78,2.92,20.17
		c2.95-1.93,5.4-3.63,7.94-5.17c4.66-2.82,9.28-5.75,14.1-8.28c18.79-9.86,37.54-19.8,56.51-29.29c5.02-2.51,10.1-4.93,15.17-7.36
		c-5.57-8.59-10.63-16.39-15.04-23.18c-9.84,5.73-19.55,11.69-29.09,18C1075.48,454.97,1058.72,462.67,1042.56,471.21z"/>
	<path class="st0" d="M1050.59,517.24c-1.49,1.03-3.25,3.79-2.84,5.1c2.91,9.26,6.35,18.34,9.91,28.28
		c2.65-1.73,4.19-2.32,5.11-3.42c6.01-7.23,13.88-11.42,22.54-14.55c8.02-2.9,15.52-6.72,21.27-13.31
		c7.48-8.59,18.12-11.84,28.24-14.87c9.75-2.92,19.23-6.43,28.55-10.29c-7.39-11.4-14.45-22.29-21-32.39
		c-0.03,0.01-0.05,0.02-0.08,0.04C1109.84,477.17,1079.99,496.85,1050.59,517.24z"/>
	<path class="st0" d="M798.92,787.61c3.99-18.82,5.71-38.07,8.73-57.07c0.57-3.57,1.75-7.05,2.78-11.09
		c-1.35,0.28-5.02,3.5-5.28,3.81c-13.28,15.81-29.12,20.97-45.19,33.04c-19.71,14.79-38.94,30.33-57.38,46.67
		c-9.03,8.01-15.49,18.84-23.72,27.86c-7.27,7.97-15.66,14.92-23.01,22.82c-2.36,2.54-4.62,5.19-6.91,7.81
		c16.71,9.04,36.41,13.72,56.99,13.77c3.34,0.01,34.95-0.08,80.88-0.21c0.32-5.29,0.7-10.57,1.19-15.8
		C791.7,819.5,793.8,811.77,798.92,787.61z"/>
	<path class="st0" d="M881.36,808.83c2.76-31.88,7.28-63.61,10.91-95.43c1.28-11.16,2.04-22.39,3.27-33.56
		c0.64-5.84,2.39-14.48,3.3-20.3c-0.48-0.27-6.45,4.35-8.27,5.92c-9.31,8.04-16.2,16.3-16.84,30.42
		c-0.84,18.49-6.45,36.7-8.84,55.18c-2.3,17.8-3.17,35.78-4.54,53.69c-1.68,21.95-3.09,43.92-4.89,65.85
		c-0.12,1.4-0.26,2.79-0.37,4.19c7.95-0.02,16.05-0.05,24.29-0.07c0-0.15,0.01-0.3,0.01-0.46
		C879.93,852.45,879.48,830.54,881.36,808.83z"/>
	<path class="st0" d="M839.55,811.03c1.1-16.86,1.57-33.82,3.69-50.55c2.73-21.53,11.04-66.5,10.82-68.44
		c-7.16,4.81-15.54,9.39-20.75,15.05c-3.01,3.27-2.34,9.99-3.19,15.18c-3.37,20.54-6.91,41.05-9.92,61.64
		c-1.32,9.02-3.86,16.58-5.78,28.41c-3.41,20.94-4.78,41.59-5.48,62.62c8.49-0.03,17.34-0.05,26.47-0.08
		c0.16-1.89,0.35-3.77,0.49-5.66C837.32,849.82,838.29,830.42,839.55,811.03z"/>
	<path class="st0" d="M844.55,669.13c12.88-5.91,16.71-13.1,14.63-27.44C845.91,648.51,840.61,657.35,844.55,669.13z"/>
	<path class="st0" d="M1007.26,515c-1.57-7.73-3.24-15.45-4.93-23.34c-19.86,7.28-24.6,17.55-20.27,42.95
		c9.79-4.3,17.55-10.34,24.55-17.46C1007.09,516.67,1007.4,515.66,1007.26,515z"/>
	<path class="st0" d="M961.82,566.41c-10.51,7.59-21.03,15.17-31.36,23c-1.46,1.11-2.56,3.61-2.62,5.5
		c-0.27,8.93-0.12,17.86-0.12,27.34c1.26-0.82,2.87-1.82,4.44-2.89c11.21-7.61,22.31-15.39,33.66-22.8
		c10.62-6.93,12.24-16.9,5.64-28.06C968.27,563.13,965.72,563.6,961.82,566.41z"/>
	<path class="st0" d="M993.83,461.74c-4.23-15.89-8.92-31.66-7.81-48.56c0.49-7.33-1.08-14.86-2.24-22.21
		c-1.14-7.24-2.7-21.04-4.42-29.22c-2.16,1.25-3.16,9.29-3.7,10.41c-2.96,6.2-6.33,12.28-8.45,18.76
		c-2.72,8.27-5.63,16.4-3.74,25.79c3.86,19.21,6.6,38.64,9.74,57.99c0.76,4.71,1.26,9.46,1.99,15.01c4.74-3.34,8.56-5.95,12.3-8.67
		C997.38,473.87,997.08,473.94,993.83,461.74z"/>
	<path class="st0" d="M1014.16,547.05c-0.71-2.64-2.31-5.05-3.3-7.12c-7.81,5.02-14.89,9.5-21.86,14.13
		c-0.99,0.66-2.21,2.18-2.08,3.13c1.11,8.25,2.5,16.46,3.65,23.73c8.67-3.34,16.91-6.31,24.93-9.8c1.47-0.64,3.05-3.57,2.8-5.18
		C1017.33,559.59,1015.83,553.28,1014.16,547.05z"/>
	<path class="st0" d="M1288.7,688.32c-19.7-30.99-71.86-111.62-116.12-179.93c-24.02,13-47.84,26.38-71.81,39.46
		c-10.88,5.93-21.69,12-32.7,17.67c-3.45,1.78-4.47,3.87-3.71,7.48c3.92,18.62,7.88,36.92,18.26,53.67
		c4.99,8.06,6.03,19.03,7.26,28.88c4.59,36.56,45.75,126.96,50.92,139.21c9.46,22.41,17.26,45.52,26.5,68.04
		c1.98,4.84,2.75,7.74,2.06,11.03c25.78-0.08,42.35-0.13,44.72-0.14c49.36-0.11,93.69-26.76,103.66-76.73
		C1317.73,796.95,1325.89,741.98,1288.7,688.32z"/>
	<path class="st0" d="M1018.73,481.02c-0.79,0-2.16,1.62-2.61,2.7c-0.5,1.2-0.01,14.73,0.97,19.89c0.35,1.85,4.73,4.74,5.33,4.74
		c0.6,0,2.96-3.78,2.71-5.4c-1.02-6.56-2.66-13.03-4.25-19.49C1020.65,482.53,1019.52,481.02,1018.73,481.02z"/>
	<path class="st0" d="M1025.61,527.24c1.77,8.84,3.57,17.68,5.79,26.42c0.48,1.88,1.82,4.69,4.04,4.67c2.22-0.02,5.4-2.24,6.54-5.02
		c-4.55-10.77-8.44-20.1-12.52-29.34C1029.18,523.34,1025.35,525.95,1025.61,527.24z"/>
	<path class="st0" d="M883.77,643.89c15.95-9.77,22.67-22.5,20.35-37.98C888.18,612.51,881.58,622.44,883.77,643.89z"/>
	<path class="st0" d="M960.11,482.9c-0.25-1.95-0.49-3.93-1.02-5.81c-1.57-5.59-4.52-15.39-6.17-20.96
		c-0.74,0.08-0.95,1.89-0.98,4.48c-0.03,2.59-6.01,34.88-9.23,53.58C959.58,504.5,962.2,499.46,960.11,482.9z"/>
	<path class="st0" d="M932.58,566.53c2.18-0.38,2.84-0.31,3.27-0.59c9.98-6.49,19.99-12.95,29.84-19.63
		c1.01-0.68,1.63-2.77,1.52-4.13c-0.5-5.86-1.04-11.76-2.14-17.53c-0.91-4.77-3.03-5.23-7.02-2.11c-3.87,3.02-7.56,6.3-11.59,9.09
		C934.22,540.11,935.51,553.52,932.58,566.53z"/>
	<path class="st0" d="M940.9,436.93c1.13-6.78,0.96-13.93,3.06-20.36c4.89-14.94-0.12-33.37-2.13-47.82
		c-0.59-0.1-0.51,2.02-1.14,3.93c-0.63,1.91-8.26,36.46-12.72,54.61c-4.47,18.21-9.85,36.21-13.91,54.51
		c-4.03,18.21-6.91,36.67-10.46,55.87c5.33-2.92,10.31-5.24,14.8-8.29c2.36-1.6,4.82-4.19,5.57-6.81
		c3.86-13.52,8.75-26.63,9.6-41.13C934.43,466.52,938.42,451.78,940.9,436.93z"/>
	<path class="st0" d="M956.53,379.79c0.22,1.19,0.82,2.69,2.39,4.37c4.65-11.91,8.85-22.45,12.86-33.05
		c1.77-4.68,4.37-9.48,4.47-14.26c0.18-8.56-1.11-17.16-2.04-25.72c-0.8-7.34-2.69-19.76-3.69-27.07c-0.54-0.03-1.83,6.62-2.18,7.47
		c-5.24,12.88-10.67,25.68-15.56,38.69c-1.62,4.31-3.03,9.29-2.48,13.71C951.78,355.94,954.31,367.85,956.53,379.79z"/>
	<path class="st0" d="M900.06,560.26c-2.95,6.4-5.88,12.86-8.07,19.55c-1.2,3.67-0.92,7.82-1.45,13.16
		c8.19-5.75,14.93-10.39,21.54-15.2c0.99-0.72,1.73-2.15,2.02-3.38c1.67-7.01,3.17-14.06,4.74-21.14c-5.19,1.11-9.98,1.88-14.6,3.25
		C902.6,556.99,900.8,558.67,900.06,560.26z"/>
</g>
<path class="st1" d="M1167.28,862.79c-9.24-22.51-17.04-45.62-26.5-68.04c-5.17-12.25-46.33-102.65-50.92-139.21
	c-1.24-9.85-2.27-20.82-7.26-28.88c-10.38-16.76-14.35-35.06-18.26-53.67c-0.76-3.61,0.26-5.7,3.71-7.48
	c11.01-5.67,21.83-11.73,32.7-17.67c23.98-13.08,47.79-26.46,71.81-39.46c-3.12-4.81-6.18-9.54-9.21-14.21
	c-9.32,3.85-18.79,7.37-28.55,10.29c-10.12,3.03-20.76,6.28-28.24,14.87c-5.74,6.59-13.25,10.41-21.27,13.31
	c-8.66,3.13-16.53,7.32-22.54,14.55c-0.92,1.11-2.47,1.69-5.11,3.42c-3.56-9.94-7-19.02-9.91-28.28c-0.41-1.31,1.35-4.07,2.84-5.1
	c29.41-20.38,59.26-40.06,91.71-55.4c0.03-0.01,0.05-0.02,0.08-0.04c-2.61-4.03-5.15-7.94-7.59-11.7
	c-5.07,2.43-10.14,4.84-15.17,7.36c-18.97,9.5-37.72,19.43-56.51,29.29c-4.82,2.53-9.44,5.46-14.1,8.28
	c-2.55,1.54-4.99,3.24-7.94,5.17c-1.03-7.39-1.58-13.86-2.92-20.17c-0.96-4.53,0.56-6.77,4.43-8.82
	c16.16-8.54,32.91-16.24,48.09-26.29c9.53-6.31,19.25-12.27,29.09-18c-3.46-5.33-6.51-10.03-9.07-13.98
	c-4.69,2.83-9.41,5.6-14.34,7.93c-20.64,9.74-41.45,19.02-59.72,33.01c-0.8,0.61-2.11,0.55-4.09,1.01
	c-2.51-15.88-4.49-31.41-7.53-46.73c-3-15.1-5.03-30.57-14.46-43.75c-2.52-3.52-3.21-8.69-3.75-13.22
	c-1.2-10.11-4.27-19.33-5.43-29.44c-0.84-7.39,0.69-10.14,1.27-13.76c2.25-13.91,3.58-11.59,7.13-25.26
	c1.57-6.07,5.88-11.88,1.55-19.2c-4.83,9.53-8.68,16.88-14.15,29.06c-0.93-6.28-1.12-36.33-1.33-41.88
	c-0.3-7.73-1.9-16.35,0.82-23.07c6.16-15.21,14.87-29.37,22.02-44.2c3.65-7.57,6.3-15.63,9.07-23.59c0.55-1.58,2.23-7.56-0.84-6.77
	c-3.07,0.79-37.13,64.79-56.64,97.44c-0.32-0.13-7.97,18.02-8.68,20.03c-9.25,26.3-19.13,48.24-27.73,74.76
	c-4.09,12.61-5.09,26.19-8.51,39.06c-5.68,21.43-12.46,42.57-18.26,63.97c-5.16,19.07-9.7,38.32-14.36,57.52
	c-3.66,15.07-7.04,30.2-10.66,45.28c-1.12,4.68-10.79,13.69-16.63,15.81c-0.16-0.5-0.55-1.05-0.46-1.49
	c5.33-24.34,10.78-48.65,16.05-73c3.76-17.37,9.9-33.89,15.94-50.59c8.96-24.77,15.16-50.53,23.19-75.66
	c5.87-18.36,12.72-36.41,19.32-54.53c5.56-15.28,11.36-30.48,17.11-45.69c1.01-2.67,9.14-21.84,10.59-25.12
	c10.98-24.91,24.78-48.75,28.71-76.29c0.49-3.4,0.99-7.84,0.3-9.49c-0.68-1.65-0.65-2.46-2.46-2.05c-1.81,0.41-7.26,4.08-8.82,7.17
	c-5.29,10.44-9.56,21.38-14.33,32.08c-9.24,20.69-19.14,41.1-27.65,62.09c-6.54,16.12-10.99,33.08-17.03,49.42
	c-6.02,16.29-12.85,32.29-19.35,48.4c-1.16,2.89-3.01,5.62-3.6,8.61c-2.17,11.12-3.77,22.34-5.9,33.46
	c-1.92,10.01-4.99,16-8.82,26.01c-2.26,5.89-3.12,8.8-3.49,11.83c-0.92,7.5-1.57,11.86-4.9,18.56
	c-6.27,12.64-12.09,25.52-17.74,38.45c-1.77,4.06-3.6,8.69-3.33,12.93c1.1,17.21-3.21,33.65-6.53,50.17
	c-1.41,7.02-17.15,36.21-21.47,40.49c-8.25,8.2-16.38,16.53-24.58,24.78c-9.31,9.36-19.37,18.11-27.76,28.24
	c-6.66,8.04-14.16,14.42-22.65,20.29c-5.78,4-10.5,9.76-15.07,15.25c-6.35,7.62-10.64,16.72-19.45,22.55
	c-6.27,4.15-11.72,9.94-16.51,15.83c-13.67,16.81-27,33.92-40.12,51.17c-9.37,12.32-18.86,24.64-27.09,37.73
	c-6,9.54-11.79,19.23-17.41,29.01c7.85,9.88,17.66,17.87,28.82,23.91c2.29-2.61,4.55-5.26,6.91-7.81
	c7.35-7.91,15.74-14.85,23.01-22.82c8.22-9.02,14.68-19.85,23.72-27.86c18.44-16.34,37.67-31.88,57.38-46.67
	c16.07-12.07,31.91-17.22,45.19-33.04c0.26-0.31,3.93-3.53,5.28-3.81c-1.03,4.05-2.21,7.52-2.78,11.09
	c-3.02,19.01-4.75,38.25-8.73,57.07c-5.12,24.16-7.22,31.89-10.91,71.59c-0.49,5.23-0.87,10.51-1.19,15.8
	c7.05-0.02,14.43-0.04,22.11-0.07c0.7-21.02,2.07-41.67,5.48-62.62c1.93-11.83,4.47-19.39,5.78-28.41
	c3.01-20.59,6.55-41.11,9.92-61.64c0.85-5.19,0.18-11.91,3.19-15.18c5.21-5.65,13.58-10.23,20.75-15.05
	c0.23,1.93-8.09,46.9-10.82,68.44c-2.12,16.74-2.59,33.69-3.69,50.55c-1.26,19.39-2.23,38.79-3.67,58.17
	c-0.14,1.89-0.32,3.78-0.49,5.66c6.43-0.02,13-0.04,19.69-0.06c0.12-1.4,0.26-2.79,0.37-4.19c1.8-21.94,3.21-43.91,4.89-65.85
	c1.37-17.91,2.25-35.89,4.54-53.69c2.39-18.48,8-36.7,8.84-55.18c0.64-14.12,7.53-22.38,16.84-30.42c1.82-1.57,7.79-6.19,8.27-5.92
	c-0.91,5.81-2.66,14.46-3.3,20.3c-1.22,11.17-1.99,22.39-3.27,33.56c-3.63,31.81-8.15,63.54-10.91,95.43
	c-1.88,21.71-1.43,43.62-1.97,65.44c0,0.15-0.01,0.3-0.01,0.46c5.96-0.02,12-0.04,18.08-0.06c0.53-12.39,0.46-24.82,1.24-37.2
	c1.15-18.26,2.99-36.48,4.54-54.72c1.81-21.27,3.45-42.4,9.62-63.2c4.66-15.71,5.9-32.48,8.18-48.85c1.16-8.34,1.1-16.85,1.95-25.24
	c0.21-2.1,1.32-4.96,2.94-5.93c13.84-8.25,27.62-16.69,41.98-23.95c9.83-4.96,10.24-4.15,12.57,6.21c0.09,0.38,0.22,0.75,0.32,1.13
	c5.52,20.19,11.11,40.36,16.53,60.58c5.68,21.19,12.49,42.19,16.49,63.71c5.34,28.78,15.59,55.81,25.72,82.95
	c5.5,14.73,11.27,29.37,17.03,44c5.78-0.02,11.5-0.04,17.11-0.05c-0.66-4.23-1.38-8.44-2.32-12.6
	c-2.96-13.17-7.48-26.03-11.75-38.88c-9.98-30.01-21.15-59.66-30.1-89.97c-8.55-28.98-14.41-58.74-22.45-87.89
	c-4.05-14.68-7.05-29.3-7.37-44.48c-0.03-1.27,0.26-3.27,1.07-3.72c6.21-3.43,11.69-8.74,19.44-8.53
	c2.16,9.29,3.94,18.23,6.35,26.99c5.42,19.75,10.97,39.48,16.83,59.11c4.01,13.42,8.87,26.58,12.9,39.99
	c3.76,12.51,6.35,25.39,10.54,37.74c4.45,13.11,10.52,25.67,15.26,38.69c6.62,18.21,11.97,36.91,19.15,54.89
	c3.18,7.96,8.07,19.33,12.4,28.51c5.7-0.02,11.23-0.04,16.58-0.05c0.13-2.52-0.17-5.01-1.13-7.14c-1.37-3.03-2.32-6.24-3.41-9.39
	c-4.82-13.89-9.3-27.91-14.52-41.65c-6.4-16.84-14.47-33.11-19.94-50.23c-10.89-34.05-20.69-68.45-30.55-102.81
	c-6.28-21.87-11.76-43.97-17.83-65.9c-1.55-5.58-4.01-10.9-6.02-16.24c6.29-3.75,7.9-3.22,9.74,2.84
	c6.52,21.42,12.73,42.95,19.64,64.25c6.65,20.53,14.14,40.78,21.03,61.23c5.32,15.79,9.43,32.04,15.65,47.46
	c10.06,24.96,21.33,49.44,32.25,74.05c6.95,15.66,12.82,28.49,19.71,43.45c5.11-0.02,9.95-0.03,14.51-0.05
	C1170.03,870.53,1169.27,867.63,1167.28,862.79z M809.21,692.87c-23.58,17.76-47.3,35.37-70.04,54.17
	c-12.37,10.23-22.86,22.75-34.2,34.23c-1.52,1.54-3.64,3.86-4.8,3.86c-1.16,0-2.07-3.63-0.22-5.61
	c7.51-8.04,14.65-16.52,22.86-23.78c29.33-25.95,59.04-51.49,88.63-77.14c1.42-1.23,3.18-2.07,5.99-3.88
	C815.77,682.34,815.2,688.36,809.21,692.87z M818.76,648.28c-42.07,34.18-81.22,71.57-119.27,110.13
	c-3.73,3.78-7.22,7.79-10.91,11.6c-0.84,0.87-2.06,1.36-3.1,2.03c-0.76,0-1.69-0.68-1.69-1.44c0-0.76,8.73-12.56,14-17.95
	c28.66-29.24,57.46-58.35,86.56-87.16c9.07-8.98,19.36-16.71,28.83-25.3c4.88-4.43,9.17-9.51,14.41-15.01
	C829.59,635.88,826.11,642.3,818.76,648.28z M844.55,669.13c-3.94-11.77,1.36-20.62,14.63-27.44
	C861.26,656.03,857.43,663.22,844.55,669.13z M852.51,625.69c-0.09-13.93,0.16-26.83,14.11-33.93
	C871.43,605.99,867.93,614.86,852.51,625.69z M991.2,338.36c5.23,20.72,18.78,95.26,24.02,115.98c1.28,5.06,0.86,8.97-6.57,10.01
	c-4.45-25.6-8.88-51.13-13.31-76.66c-0.72-4.04-6.59-44.38-5.77-44.57C989.48,339.42,990.77,336.64,991.2,338.36z M981.62,266.41
	c0,0,8.79,41.58,7.87,43.75c-1.07,2.51-3.6,11.55-5.16,10.85c-1.57-0.7-3.74-51.94-3.74-51.94L981.62,266.41z M952.79,330.2
	c4.89-13.01,10.32-25.81,15.56-38.69c0.35-0.85,1.64-7.5,2.18-7.47c1,7.32,2.89,19.73,3.69,27.07c0.93,8.56,2.22,17.16,2.04,25.72
	c-0.1,4.79-2.7,9.58-4.47,14.26c-4.01,10.6-8.21,21.13-12.86,33.05c-1.57-1.67-2.17-3.17-2.39-4.37
	c-2.22-11.94-4.75-23.84-6.23-35.88C949.76,339.49,951.17,334.51,952.79,330.2z M946.46,531.64c4.03-2.79,7.72-6.07,11.59-9.09
	c3.99-3.12,6.11-2.66,7.02,2.11c1.11,5.77,1.65,11.66,2.14,17.53c0.11,1.36-0.51,3.44-1.52,4.13c-9.85,6.68-19.86,13.14-29.84,19.63
	c-0.43,0.28-1.09,0.22-3.27,0.59C935.51,553.52,934.22,540.11,946.46,531.64z M942.71,514.19c3.22-18.69,9.19-50.99,9.23-53.58
	c0.03-2.59,0.24-4.4,0.98-4.48c1.66,5.57,4.6,15.36,6.17,20.96c0.53,1.89,0.77,3.86,1.02,5.81
	C962.2,499.46,959.58,504.5,942.71,514.19z M883.77,643.89c-2.18-21.45,4.41-31.38,20.35-37.98
	C906.43,621.4,899.72,634.12,883.77,643.89z M914.1,574.39c-0.29,1.23-1.03,2.66-2.02,3.38c-6.61,4.81-13.35,9.45-21.54,15.2
	c0.53-5.34,0.25-9.49,1.45-13.16c2.19-6.68,5.12-13.14,8.07-19.55c0.73-1.59,2.54-3.27,4.19-3.76c4.61-1.37,9.41-2.15,14.6-3.25
	C917.28,560.33,915.78,567.38,914.1,574.39z M923.96,522.58c-0.75,2.62-3.21,5.21-5.57,6.81c-4.49,3.04-9.47,5.36-14.8,8.29
	c3.54-19.2,6.42-37.66,10.46-55.87c4.05-18.3,9.44-36.3,13.91-54.51c4.45-18.15,12.09-52.7,12.72-54.61
	c0.63-1.91,0.55-4.03,1.14-3.93c2.02,14.45,7.02,32.88,2.13,47.82c-2.1,6.43-1.93,13.58-3.06,20.36
	c-2.48,14.85-6.47,29.59-7.33,44.52C932.72,495.95,927.83,509.06,923.96,522.58z M965.81,596.58c-11.35,7.4-22.44,15.19-33.66,22.8
	c-1.57,1.06-3.18,2.07-4.44,2.89c0-9.48-0.15-18.42,0.12-27.34c0.06-1.89,1.16-4.39,2.62-5.5c10.33-7.83,20.85-15.41,31.36-23
	c3.9-2.81,6.45-3.28,9.63,2.1C978.05,579.68,976.43,589.65,965.81,596.58z M975.2,489.71c-0.73-5.55-1.23-10.3-1.99-15.01
	c-3.14-19.35-5.87-38.79-9.74-57.99c-1.89-9.39,1.02-17.52,3.74-25.79c2.13-6.48,5.5-12.57,8.45-18.76
	c0.53-1.12,1.53-9.16,3.7-10.41c1.72,8.18,3.28,21.98,4.42,29.22c1.16,7.36,2.72,14.88,2.24,22.21c-1.12,16.9,3.58,32.67,7.81,48.56
	c3.25,12.19,3.55,12.13-6.33,19.3C983.76,483.76,979.95,486.37,975.2,489.71z M1002.34,491.66c1.68,7.89,3.35,15.61,4.93,23.34
	c0.13,0.66-0.17,1.67-0.65,2.15c-7,7.12-14.76,13.16-24.55,17.46C977.74,509.21,982.48,498.93,1002.34,491.66z M1015.5,571.13
	c-8.02,3.49-16.26,6.46-24.93,9.8c-1.15-7.26-2.54-15.48-3.65-23.73c-0.13-0.95,1.09-2.47,2.08-3.13
	c6.97-4.63,14.04-9.11,21.86-14.13c0.99,2.07,2.59,4.47,3.3,7.12c1.67,6.23,3.17,12.53,4.14,18.9
	C1018.55,567.55,1016.97,570.49,1015.5,571.13z M1022.42,508.34c-0.6,0-4.97-2.89-5.33-4.74c-0.98-5.16-1.47-18.69-0.97-19.89
	c0.45-1.07,1.82-2.7,2.61-2.7c0.79,0,1.92,1.51,2.15,2.44c1.59,6.46,3.23,12.93,4.25,19.49
	C1025.38,504.57,1023.02,508.34,1022.42,508.34z M1035.44,558.32c-2.22,0.02-3.56-2.79-4.04-4.67c-2.22-8.73-4.02-17.58-5.79-26.42
	c-0.26-1.28,3.57-3.9,3.85-3.27c4.08,9.24,7.97,18.57,12.52,29.34C1040.84,556.08,1037.65,558.31,1035.44,558.32z"/>
<g>
	<path class="st2" d="M639.9,978.9c1.6-19.71,13.86-29.31,38.01-29.31c12.97,0,22.91,3.02,29.66,8.88
		c6.22,5.5,8.53,12.43,8.53,25.05v39.43c0,9.24,0.36,10.48,3.19,14.74h-25.75c-1.07-3.02-1.07-3.55-1.95-6.75
		c-8.35,6.93-14.39,9.06-24.51,9.06c-19,0-31.62-10.66-31.62-26.82c0-16.16,10.12-24.51,34.1-28.42l13.67-2.31
		c5.69-0.89,7.64-2.31,7.64-5.86c0-4.79-4.98-7.81-13.14-7.81c-9.24,0-14.21,3.2-15.28,10.12H639.9z M691.59,996.84
		c-2.67,1.07-4.98,1.77-9.24,2.66l-9.06,1.95c-9.06,2.13-12.97,5.15-12.97,10.3c0,5.69,4.8,9.06,12.79,9.06
		c8.35,0,14.39-3.55,18.48-10.83V996.84z"/>
	<path class="st2" d="M763.16,951.9l-0.71,15.27c4.97-13.85,11.37-17.76,29.66-17.58v23.8c-3.02-0.36-4.26-0.36-6.39-0.36
		c-8.71,0-15.81,3.9-18.65,10.3c-2.49,5.68-3.37,13.68-3.37,30.19v24.16h-25.22V951.9H763.16z"/>
	<path class="st2" d="M803.82,978.9c1.6-19.71,13.86-29.31,38.01-29.31c12.97,0,22.91,3.02,29.66,8.88
		c6.22,5.5,8.53,12.43,8.53,25.05v39.43c0,9.24,0.36,10.48,3.19,14.74h-25.75c-1.07-3.02-1.07-3.55-1.95-6.75
		c-8.35,6.93-14.39,9.06-24.51,9.06c-19,0-31.62-10.66-31.62-26.82c0-16.16,10.12-24.51,34.1-28.42l13.67-2.31
		c5.69-0.89,7.64-2.31,7.64-5.86c0-4.79-4.98-7.81-13.14-7.81c-9.24,0-14.21,3.2-15.28,10.12H803.82z M855.51,996.84
		c-2.67,1.07-4.98,1.77-9.24,2.66l-9.06,1.95c-9.06,2.13-12.97,5.15-12.97,10.3c0,5.69,4.8,9.06,12.79,9.06
		c8.35,0,14.39-3.55,18.48-10.83V996.84z"/>
	<path class="st2" d="M949.98,977.65c-1.07-6.39-6.21-9.77-14.57-9.77c-7.28,0-12.08,2.84-12.08,7.11c0,3.19,2.49,4.79,10.48,6.57
		l15.81,3.38c10.48,2.13,15.81,4.44,19.54,8.35c4.09,3.91,6.4,10.3,6.4,17.23c0,18.12-14.74,29.49-38.55,29.49
		s-38.54-11.19-39.96-30.2h23.62c1.42,8.17,6.75,11.9,16.87,11.9c8,0,13.14-3.19,13.14-8.35c0-4.09-2.84-6.21-9.59-7.81l-15.63-3.55
		c-18.83-4.08-26.11-11.01-26.11-24.69c0-17.23,13.67-27.71,36.59-27.71c22.02,0,35.35,9.95,37.66,28.06H949.98z"/>
</g>
<g>
	<path class="st0" d="M1024.91,1028.99h42.26v9.99h-53.28v-88.37h11.01V1028.99z"/>
	<path class="st0" d="M1074.2,1038.98l30.74-88.37h10.25l30.74,88.37h-11.65l-6.79-20.23h-34.83l-6.79,20.23H1074.2z
		 M1096.1,1008.75h27.92l-13.96-41.49L1096.1,1008.75z"/>
	<path class="st0" d="M1181.48,950.61c20.62,0,30.48,7.81,30.48,22.54c0,9.22-6.02,17.67-14.6,19.72
		c11.14,2.05,17.42,9.48,17.42,20.75c0,12.81-7.81,25.36-30.48,25.36h-29.84v-88.37H1181.48z M1165.47,988.13h17.93
		c12.42,0,17.55-6.28,17.55-14.98c0-7.81-3.97-12.68-19.47-12.68h-16.01V988.13z M1165.47,1028.99h18.83
		c13.32,0,19.47-5.76,19.47-15.37c0-10.63-6.92-15.5-21.52-15.5h-16.78V1028.99z"/>
	<path class="st0" d="M1274.42,970.2c-4.74-6.15-9.86-10.63-21-10.63c-10.25,0-17.16,4.61-17.16,13.83
		c0,10.5,7.94,14.09,20.87,16.39c17.03,2.95,27.41,9.09,27.41,25.49c0,11.53-7.68,24.72-29.71,24.72c-14.34,0-24.85-4.87-31.5-14.47
		l9.09-6.28c5.76,6.79,10.89,10.76,22.41,10.76c14.47,0,18.7-6.66,18.7-14.22c0-8.32-4.23-13.96-20.87-16.52
		c-16.65-2.56-27.41-10.5-27.41-25.87c0-12.68,8.33-23.82,28.56-23.82c14.09,0,22.92,4.74,29.2,14.47L1274.42,970.2z"/>
</g>
</svg>
